# Blender v2.75 (sub 0) OBJ File: ''
# www.blender.org
mtllib fireplace_empty.mtl
o Cube.009_Cube.010
v -1.875625 -0.331071 -0.956249
v -1.882333 -0.303344 0.871280
v -1.871355 -0.873750 -0.947999
v -1.878062 -0.846023 0.879529
v -1.970013 -0.331819 -0.956584
v -1.976720 -0.304092 0.870945
v -1.965742 -0.874498 -0.948335
v -1.972450 -0.846771 0.879194
vn 1.000000 0.007900 0.003500
vn 0.007900 -0.999900 0.015200
vn -1.000000 -0.007900 -0.003500
vn -0.007900 0.999900 -0.015200
vn 0.003700 -0.015200 -0.999900
vn -0.003700 0.015200 0.999900
usemtl None
s off
f 2//1 4//1 3//1 1//1
f 4//2 8//2 7//2 3//2
f 8//3 6//3 5//3 7//3
f 6//4 2//4 1//4 5//4
f 1//5 3//5 7//5 5//5
f 6//6 8//6 4//6 2//6
o Cube.008_Cube.009
v -1.914666 1.976250 0.049641
v -1.914666 2.249527 0.049641
v -1.914666 1.976250 -0.283576
v -1.914666 2.249527 -0.283576
v -0.054283 1.976250 0.049641
v -0.054283 2.249527 0.049641
v -0.054283 1.976250 -0.283576
v -0.054283 2.249527 -0.283576
vn -1.000000 0.000000 0.000000
vn 0.000000 0.000000 -1.000000
vn 1.000000 0.000000 0.000000
vn 0.000000 0.000000 1.000000
vn 0.000000 -1.000000 0.000000
vn 0.000000 1.000000 0.000000
usemtl None
s off
f 10//7 12//7 11//7 9//7
f 12//8 16//8 15//8 11//8
f 16//9 14//9 13//9 15//9
f 14//10 10//10 9//10 13//10
f 9//11 11//11 15//11 13//11
f 14//12 16//12 12//12 10//12
o Cube.007_Cube.008
v -1.911818 1.599512 0.223404
v -1.911818 1.990067 0.223404
v -1.911818 1.599512 -0.401498
v -1.911818 1.990067 -0.401498
v -0.072114 1.599512 0.223404
v -0.072114 1.990067 0.223404
v -0.072114 1.599512 -0.401498
v -0.072114 1.990067 -0.401498
vn -1.000000 0.000000 0.000000
vn 0.000000 0.000000 -1.000000
vn 1.000000 0.000000 0.000000
vn 0.000000 0.000000 1.000000
vn 0.000000 -1.000000 0.000000
vn 0.000000 1.000000 0.000000
usemtl None
s off
f 18//13 20//13 19//13 17//13
f 20//14 24//14 23//14 19//14
f 24//15 22//15 21//15 23//15
f 22//16 18//16 17//16 21//16
f 17//17 19//17 23//17 21//17
f 22//18 24//18 20//18 18//18
o Cube.006_Cube.007
v -1.919788 1.283157 0.334455
v -1.919788 1.673711 0.334455
v -1.919788 1.283157 -0.532109
v -1.919788 1.673711 -0.532109
v -0.007317 1.283157 0.334455
v -0.007317 1.673711 0.334455
v -0.007317 1.283157 -0.532109
v -0.007317 1.673711 -0.532109
vn -1.000000 0.000000 0.000000
vn 0.000000 0.000000 -1.000000
vn 1.000000 0.000000 0.000000
vn 0.000000 0.000000 1.000000
vn 0.000000 -1.000000 0.000000
vn 0.000000 1.000000 0.000000
usemtl None
s off
f 26//19 28//19 27//19 25//19
f 28//20 32//20 31//20 27//20
f 32//21 30//21 29//21 31//21
f 30//22 26//22 25//22 29//22
f 25//23 27//23 31//23 29//23
f 30//24 32//24 28//24 26//24
o Cube.005_Cube.006
v -1.931623 1.001512 0.792719
v -1.931623 1.392066 0.792719
v -1.931623 1.001512 -0.918889
v -1.931623 1.392066 -0.918889
v 0.044714 1.001512 0.792719
v 0.044714 1.392066 0.792719
v 0.044714 1.001512 -0.918889
v 0.044714 1.392066 -0.918889
vn -1.000000 0.000000 0.000000
vn 0.000000 0.000000 -1.000000
vn 1.000000 0.000000 0.000000
vn 0.000000 0.000000 1.000000
vn 0.000000 -1.000000 0.000000
vn 0.000000 1.000000 0.000000
usemtl None
s off
f 34//25 36//25 35//25 33//25
f 36//26 40//26 39//26 35//26
f 40//27 38//27 37//27 39//27
f 38//28 34//28 33//28 37//28
f 33//29 35//29 39//29 37//29
f 38//30 40//30 36//30 34//30
o Cube.004_Cube.005
v 0.056191 0.896049 -1.031979
v 0.056191 0.899351 0.941779
v -1.943517 0.930250 -1.032036
v -1.943517 0.933552 0.941721
v 0.057803 0.990334 -1.032137
v 0.057804 0.993636 0.941621
v -1.941904 1.024536 -1.032194
v -1.941904 1.027838 0.941564
vn -0.017100 -0.999900 0.001700
vn -0.999900 0.017100 -0.000000
vn 0.017100 0.999900 -0.001700
vn 0.999900 -0.017100 0.000000
vn -0.000000 -0.001700 -1.000000
vn 0.000000 0.001700 1.000000
usemtl None
s off
f 42//31 44//31 43//31 41//31
f 44//32 48//32 47//32 43//32
f 48//33 46//33 45//33 47//33
f 46//34 42//34 41//34 45//34
f 41//35 43//35 47//35 45//35
f 46//36 48//36 44//36 42//36
o Cube.003_Cube.004
v 0.016186 -0.966420 -0.971699
v 0.016186 -0.915652 0.951856
v -1.983521 -0.932231 -0.972601
v -1.983521 -0.881463 0.950953
v 0.017799 -0.872167 -0.974186
v 0.017799 -0.821400 0.949368
v -1.981909 -0.837978 -0.975089
v -1.981909 -0.787210 0.948466
vn -0.017100 -0.999500 0.026400
vn -0.999900 0.017100 -0.000500
vn 0.017100 0.999500 -0.026400
vn 0.999900 -0.017100 0.000500
vn 0.000000 -0.026400 -0.999700
vn -0.000000 0.026400 0.999700
usemtl None
s off
f 50//37 52//37 51//37 49//37
f 52//38 56//38 55//38 51//38
f 56//39 54//39 53//39 55//39
f 54//40 50//40 49//40 53//40
f 49//41 51//41 55//41 53//41
f 54//42 56//42 52//42 50//42
o Cube.002_Cube.003
v 0.016186 -0.997135 -0.902221
v 0.016186 1.002865 -0.902221
v -1.983521 -0.997135 -0.936423
v -1.983521 1.002865 -0.936423
v 0.017799 -0.997135 -0.996509
v 0.017799 1.002865 -0.996509
v -1.981909 -0.997135 -1.030711
v -1.981909 1.002865 -1.030711
vn -0.017100 0.000000 0.999900
vn -0.999900 0.000000 -0.017100
vn 0.017100 0.000000 -0.999900
vn 0.999900 0.000000 0.017100
vn 0.000000 -1.000000 0.000000
vn 0.000000 1.000000 0.000000
usemtl None
s off
f 58//43 60//43 59//43 57//43
f 60//44 64//44 63//44 59//44
f 64//45 62//45 61//45 63//45
f 62//46 58//46 57//46 61//46
f 57//47 59//47 63//47 61//47
f 62//48 64//48 60//48 58//48
o Cube.001_Cube.002
v 0.048057 -1.004804 0.990161
v 0.048057 0.995196 0.990161
v -1.951651 -1.004804 0.955960
v -1.951651 0.995196 0.955960
v 0.049669 -1.004804 0.895873
v 0.049669 0.995196 0.895873
v -1.950038 -1.004804 0.861672
v -1.950038 0.995196 0.861672
vn -0.017100 0.000000 0.999900
vn -0.999900 0.000000 -0.017100
vn 0.017100 0.000000 -0.999900
vn 0.999900 0.000000 0.017100
vn 0.000000 -1.000000 0.000000
vn 0.000000 1.000000 -0.000000
usemtl None
s off
f 66//49 68//49 67//49 65//49
f 68//50 72//50 71//50 67//50
f 72//51 70//51 69//51 71//51
f 70//52 66//52 65//52 69//52
f 65//53 67//53 71//53 69//53
f 70//54 72//54 68//54 66//54
o Cube_Cube.001
v -0.047151 -1.000000 1.000000
v -0.047151 1.000000 1.000000
v -0.047151 -1.000000 -1.000000
v -0.047151 1.000000 -1.000000
v 0.047151 -1.000000 1.000000
v 0.047151 1.000000 1.000000
v 0.047151 -1.000000 -1.000000
v 0.047151 1.000000 -1.000000
vn -1.000000 0.000000 0.000000
vn 0.000000 0.000000 -1.000000
vn 1.000000 0.000000 0.000000
vn 0.000000 0.000000 1.000000
vn 0.000000 -1.000000 0.000000
vn 0.000000 1.000000 0.000000
usemtl None
s off
f 74//55 76//55 75//55 73//55
f 76//56 80//56 79//56 75//56
f 80//57 78//57 77//57 79//57
f 78//58 74//58 73//58 77//58
f 73//59 75//59 79//59 77//59
f 78//60 80//60 76//60 74//60
