# Blender v2.75 (sub 4) OBJ File: 'fireplace_empty.blend'
# www.blender.org
o Fireplace_on_Plane.002
v -0.351930 -0.351930 0.025126
v -0.351930 0.351930 0.025126
v 0.351930 -0.351930 0.025126
v 0.351930 0.351930 0.025126
v 0.400000 0.041703 0.249151
v -0.400000 0.041703 0.249151
v 0.400000 -0.008757 0.370972
v -0.400000 -0.008757 0.370972
v 0.400000 -0.302859 0.249151
v -0.400000 -0.302859 0.249151
v 0.400000 -0.252399 0.127330
v -0.400000 -0.252399 0.127330
v 0.400000 -0.130578 0.076870
v -0.400000 -0.130578 0.076870
v 0.400000 -0.008757 0.127330
v -0.400000 -0.008757 0.127330
v 0.400000 -0.079822 -0.150849
v -0.400000 -0.079822 -0.150849
v 0.400000 -0.112470 -0.072030
v -0.400000 -0.112470 -0.072030
v 0.400000 -0.191289 -0.039382
v -0.400000 -0.191289 -0.039382
v 0.400000 -0.302756 -0.150849
v -0.400000 -0.302756 -0.150849
v 0.400000 -0.270108 -0.229668
v -0.400000 -0.270108 -0.229668
v 0.400000 -0.191289 -0.262316
v -0.400000 -0.191289 -0.262316
v 0.400000 -0.112470 -0.229668
v -0.400000 -0.112470 -0.229668
v 0.447003 -0.064595 -0.457685
v 0.447003 -0.364595 -0.457685
v -0.447003 -0.064595 -0.457685
v -0.447003 -0.364595 -0.457685
v -0.500000 -0.400000 -0.500000
v -0.500000 0.500000 -0.500000
v 0.500000 -0.400000 -0.500000
v 0.500000 0.500000 -0.500000
v -0.500000 -0.400000 0.500000
v -0.500000 0.500000 0.500000
v 0.500000 -0.400000 0.500000
v 0.500000 0.500000 0.500000
v -0.400000 0.500000 -0.500000
v 0.400000 0.500000 -0.500000
v 0.400000 -0.400000 -0.500000
v -0.400000 -0.400000 -0.500000
v 0.400000 0.500000 0.500000
v -0.400000 0.500000 0.500000
v -0.400000 -0.400000 0.500000
v 0.400000 -0.400000 0.500000
v -0.500000 -0.300000 -0.500000
v -0.500000 0.400000 -0.500000
v 0.500000 0.400000 -0.500000
v 0.500000 -0.300000 -0.500000
v 0.500000 0.400000 0.500000
v 0.500000 -0.300000 0.500000
v -0.500000 0.400000 0.500000
v -0.500000 -0.300000 0.500000
v 0.400000 0.400000 0.500000
v 0.400000 -0.300000 0.500000
v -0.400000 0.400000 0.500000
v -0.400000 -0.300000 0.500000
v -0.400000 0.400000 -0.500000
v -0.400000 -0.300000 -0.500000
v 0.400000 0.400000 -0.500000
v 0.400000 -0.300000 -0.500000
v -0.400000 0.400000 0.400000
v -0.400000 -0.300000 0.400000
v 0.400000 0.400000 0.400000
v 0.400000 -0.300000 0.400000
v -0.400000 -0.500000 -0.500000
v -0.500000 -0.500000 -0.500000
v 0.500000 -0.500000 0.500000
v 0.500000 -0.500000 -0.500000
v 0.400000 -0.500000 0.500000
v -0.500000 -0.500000 0.500000
v 0.400000 -0.500000 -0.500000
v -0.400000 -0.500000 0.500000
v -0.400000 0.675000 -0.500000
v 0.400000 0.675000 -0.500000
v -0.400000 0.675000 0.500000
v 0.400000 0.675000 0.500000
v 0.400000 0.675000 0.500000
v -0.400000 0.675000 0.500000
v 0.400000 0.675000 -0.500000
v -0.400000 0.675000 -0.500000
v 0.240000 0.675000 0.500000
v -0.240000 0.675000 0.500000
v 0.240000 0.675000 -0.500000
v -0.240000 0.675000 -0.500000
v 0.240000 0.875000 0.500000
v -0.240000 0.875000 0.500000
v 0.240000 0.875000 -0.500000
v -0.240000 0.875000 -0.500000
v 0.120000 0.875000 0.500000
v -0.120000 0.875000 0.500000
v 0.120000 0.875000 -0.500000
v -0.120000 0.875000 -0.500000
v 0.120000 1.075000 0.500000
v -0.120000 1.075000 0.500000
v 0.120000 1.075000 -0.500000
v -0.120000 1.075000 -0.500000
vt 0.980066 -0.232831
vt 1.103207 -0.232831
vt 1.103207 -0.355973
vt 0.980066 -0.355973
vt -0.128207 -0.232831
vt -0.128207 -0.355973
vt -0.005066 -0.232831
vt -0.005066 -0.355973
vt -0.005066 -0.479114
vt -0.128207 -0.479114
vt 1.103207 0.629159
vt 1.103207 0.752301
vt -0.128207 0.752301
vt -0.128207 0.629159
vt 1.103207 -0.479114
vt 0.980066 -0.479114
vt -0.005066 0.752301
vt 0.980066 0.752301
vt 0.980066 0.629159
vt -0.005066 0.629159
vt -0.128207 0.967798
vt 1.103207 0.967798
vt 1.103207 1.214081
vt -0.128207 1.214081
vt 0.121793 -0.355973
vt 1.353207 -0.355973
vt 1.353207 -0.158946
vt 0.121793 -0.158946
vt 1.353207 -0.011176
vt 0.121793 -0.011176
vt 1.353207 0.629159
vt 0.121793 0.629159
vt 0.121793 0.432133
vt 1.353207 0.432133
vt 0.121793 0.284363
vt 1.353207 0.284363
vt 1.103207 1.460364
vt -0.128207 1.460364
vt 0.344398 1.457912
vt 0.635804 1.457912
vt 0.635804 1.215073
vt 0.344398 1.215073
vt 0.339730 1.214081
vt 0.635270 1.214081
vt 0.635270 1.460364
vt 0.339730 1.460364
vt 0.191961 1.214081
vt 0.783040 1.214081
vt 0.783040 0.967798
vt 0.191961 0.967798
vt 0.980066 0.967798
vt -0.005066 0.967798
vt -0.043259 1.000983
vt -0.043259 0.631558
vt 1.057632 0.631558
vt 1.057632 1.000983
vt 0.621575 0.000134
vt 0.621575 0.999866
vt 0.496809 0.999866
vt 0.496810 0.000134
vt 0.122515 0.000134
vt 0.122514 0.999866
vt -0.002251 0.999866
vt -0.002250 0.000134
vt 0.995869 0.000134
vt 0.995869 0.999866
vt 0.871105 0.999866
vt 0.871105 0.000134
vt 0.746340 0.000134
vt 0.746340 0.999866
vt 0.372044 0.999866
vt 0.372045 0.000134
vt 0.999900 0.000100
vt 0.999900 0.999900
vt 0.000100 0.999900
vt 0.000100 0.000100
vn 0.000000 0.000000 -1.000000
vn 1.000000 0.000000 0.000000
vn 0.000000 0.000000 1.000000
vn -1.000000 0.000000 -0.000000
vn 0.000000 1.000000 0.000000
vn 0.000000 -1.000000 0.000000
vn 0.000000 0.923900 0.382700
vn -0.000000 -0.923900 -0.382700
vn 0.000000 -0.382700 -0.923900
vn 0.000000 0.923900 -0.382700
vn 0.000000 0.382700 -0.923900
vn -0.000000 0.382700 0.923900
g Fireplace_on_Plane.002_FirePlace
s off
f 66/1/1 54/2/1 37/3/1 45/4/1
f 54/5/2 56/2/2 41/3/2 37/6/2
f 62/7/3 58/5/3 39/6/3 49/8/3
f 58/2/4 51/5/4 35/6/4 39/3/4
f 35/6/1 46/8/1 71/9/1 72/10/1
f 47/11/5 42/12/5 38/13/5 44/14/5
f 40/15/5 48/3/5 43/6/5 36/10/5
f 45/4/1 37/3/1 74/15/1 77/16/1
f 46/6/6 45/14/6 50/11/6 49/3/6
f 56/2/3 60/1/3 50/4/3 41/3/3
f 60/1/3 62/7/3 49/8/3 50/4/3
f 51/5/1 64/7/1 46/8/1 35/6/1
f 64/7/1 66/1/1 45/4/1 46/8/1
f 43/17/1 44/18/1 65/19/1 63/20/1
f 66/14/5 64/6/5 68/4/5 70/19/5
f 36/13/1 43/17/1 63/20/1 52/14/1
f 52/14/1 63/20/1 64/7/1 51/5/1
f 47/18/3 48/17/3 61/20/3 59/19/3
f 59/19/3 61/20/3 62/7/3 60/1/3
f 42/12/3 47/18/3 59/19/3 55/11/3
f 55/11/3 59/19/3 60/1/3 56/2/3
f 40/12/4 36/13/4 52/14/4 57/11/4
f 57/11/4 52/14/4 51/5/4 58/2/4
f 48/17/3 40/13/3 57/14/3 61/20/3
f 61/20/3 57/14/3 58/5/3 62/7/3
f 38/13/2 42/12/2 55/11/2 53/14/2
f 53/14/2 55/11/2 56/2/2 54/5/2
f 44/18/1 38/12/1 53/11/1 65/19/1
f 65/19/1 53/11/1 54/2/1 66/1/1
f 67/20/1 69/19/1 70/1/1 68/7/1
f 65/14/4 66/5/4 70/1/4 69/19/4
f 64/5/2 63/14/2 67/19/2 68/1/2
f 63/6/6 65/14/6 69/19/6 67/4/6
f 77/14/6 74/13/6 73/12/6 75/11/6
f 72/10/6 71/6/6 78/3/6 76/15/6
f 50/3/4 45/6/4 77/10/4 75/15/4
f 37/6/2 41/3/2 73/15/2 74/10/2
f 46/6/2 49/3/2 78/15/2 71/10/2
f 39/3/4 35/6/4 72/10/4 76/15/4
f 41/3/3 50/4/3 75/16/3 73/15/3
f 49/8/3 39/6/3 76/10/3 78/9/3
f 90/21/4 88/22/4 92/23/4 94/24/4
f 47/12/2 44/13/2 80/21/2 82/22/2
f 43/13/4 48/12/4 81/22/4 79/21/4
f 86/25/5 84/26/5 88/27/5 90/28/5
f 79/6/3 81/3/3 84/3/3 86/6/3
f 94/28/5 92/27/5 96/29/5 98/30/5
f 87/22/2 89/21/2 93/24/2 91/23/2
f 83/31/5 85/32/5 89/33/5 87/34/5
f 82/11/3 80/14/3 85/14/3 83/11/3
f 91/34/5 93/33/5 97/35/5 95/36/5
f 98/24/4 96/23/4 100/37/4 102/38/4
f 95/23/2 97/24/2 101/38/2 99/37/2
f 101/35/5 102/30/5 100/29/5 99/36/5
f 102/39/1 101/40/1 97/41/1 98/42/1
f 96/43/3 95/44/3 99/45/3 100/46/3
f 94/47/1 98/43/1 97/44/1 93/48/1 89/49/1 90/50/1
f 88/50/3 87/49/3 91/48/3 95/44/3 96/43/3 92/47/3
f 48/17/3 47/18/3 82/51/3 84/52/3 88/50/3 87/49/3 83/51/3 81/52/3
f 43/17/1 79/52/1 85/51/1 89/49/1 90/50/1 86/52/1 80/51/1 44/18/1
g Fireplace_on_Plane.002_Grate
f 31/53/1 32/54/1 34/55/1 33/56/1
g Fireplace_on_Plane.002_Wood
f 5/57/7 6/58/7 8/59/7 7/60/7
f 9/61/8 10/62/8 12/63/8 11/64/8
f 11/65/9 12/66/9 14/67/9 13/68/9
f 15/69/10 16/70/10 6/58/10 5/57/10
f 13/68/11 14/67/11 16/70/11 15/69/11
f 17/57/7 18/58/7 20/59/7 19/60/7
f 19/60/12 20/59/12 22/71/12 21/72/12
f 23/61/8 24/62/8 26/63/8 25/64/8
f 25/65/9 26/66/9 28/67/9 27/68/9
f 29/69/10 30/70/10 18/58/10 17/57/10
f 27/68/11 28/67/11 30/70/11 29/69/11
g Fireplace_on_Plane.002_Fire
f 1/73/1 2/74/1 4/75/1 3/76/1
