# Blender v2.75 (sub 4) OBJ File: 'fireplace_empty.blend'
# www.blender.org
o Fireplace_off_Plane
v 0.447003 -0.064595 -0.457685
v 0.447003 -0.364595 -0.457685
v -0.447003 -0.064595 -0.457685
v -0.447003 -0.364595 -0.457685
v -0.500000 -0.400000 -0.500000
v -0.500000 0.500000 -0.500000
v 0.500000 -0.400000 -0.500000
v 0.500000 0.500000 -0.500000
v -0.500000 -0.400000 0.500000
v -0.500000 0.500000 0.500000
v 0.500000 -0.400000 0.500000
v 0.500000 0.500000 0.500000
v -0.400000 0.500000 -0.500000
v 0.400000 0.500000 -0.500000
v 0.400000 -0.400000 -0.500000
v -0.400000 -0.400000 -0.500000
v 0.400000 0.500000 0.500000
v -0.400000 0.500000 0.500000
v -0.400000 -0.400000 0.500000
v 0.400000 -0.400000 0.500000
v -0.500000 -0.300000 -0.500000
v -0.500000 0.400000 -0.500000
v 0.500000 0.400000 -0.500000
v 0.500000 -0.300000 -0.500000
v 0.500000 0.400000 0.500000
v 0.500000 -0.300000 0.500000
v -0.500000 0.400000 0.500000
v -0.500000 -0.300000 0.500000
v 0.400000 0.400000 0.500000
v 0.400000 -0.300000 0.500000
v -0.400000 0.400000 0.500000
v -0.400000 -0.300000 0.500000
v -0.400000 0.400000 -0.500000
v -0.400000 -0.300000 -0.500000
v 0.400000 0.400000 -0.500000
v 0.400000 -0.300000 -0.500000
v -0.400000 0.400000 0.400000
v -0.400000 -0.300000 0.400000
v 0.400000 0.400000 0.400000
v 0.400000 -0.300000 0.400000
v -0.400000 -0.500000 -0.500000
v -0.500000 -0.500000 -0.500000
v 0.500000 -0.500000 0.500000
v 0.500000 -0.500000 -0.500000
v 0.400000 -0.500000 0.500000
v -0.500000 -0.500000 0.500000
v 0.400000 -0.500000 -0.500000
v -0.400000 -0.500000 0.500000
v -0.400000 0.675000 -0.500000
v 0.400000 0.675000 -0.500000
v -0.400000 0.675000 0.500000
v 0.400000 0.675000 0.500000
v 0.400000 0.675000 0.500000
v -0.400000 0.675000 0.500000
v 0.400000 0.675000 -0.500000
v -0.400000 0.675000 -0.500000
v 0.240000 0.675000 0.500000
v -0.240000 0.675000 0.500000
v 0.240000 0.675000 -0.500000
v -0.240000 0.675000 -0.500000
v 0.240000 0.875000 0.500000
v -0.240000 0.875000 0.500000
v 0.240000 0.875000 -0.500000
v -0.240000 0.875000 -0.500000
v 0.120000 0.875000 0.500000
v -0.120000 0.875000 0.500000
v 0.120000 0.875000 -0.500000
v -0.120000 0.875000 -0.500000
v 0.120000 1.075000 0.500000
v -0.120000 1.075000 0.500000
v 0.120000 1.075000 -0.500000
v -0.120000 1.075000 -0.500000
vt 0.980066 -0.232831
vt 1.103207 -0.232831
vt 1.103207 -0.355973
vt 0.980066 -0.355973
vt -0.128207 -0.232831
vt -0.128207 -0.355973
vt -0.005066 -0.232831
vt -0.005066 -0.355973
vt -0.005066 -0.479114
vt -0.128207 -0.479114
vt 1.103207 0.629159
vt 1.103207 0.752301
vt -0.128207 0.752301
vt -0.128207 0.629159
vt 1.103207 -0.479114
vt 0.980066 -0.479114
vt -0.005066 0.752301
vt 0.980066 0.752301
vt 0.980066 0.629159
vt -0.005066 0.629159
vt -0.128207 0.967798
vt 1.103207 0.967798
vt 1.103207 1.214081
vt -0.128207 1.214081
vt 0.121793 -0.355973
vt 1.353207 -0.355973
vt 1.353207 -0.158946
vt 0.121793 -0.158946
vt 1.353207 -0.011176
vt 0.121793 -0.011176
vt 1.353207 0.629159
vt 0.121793 0.629159
vt 0.121793 0.432133
vt 1.353207 0.432133
vt 0.121793 0.284363
vt 1.353207 0.284363
vt 1.103207 1.460364
vt -0.128207 1.460364
vt 0.341929 1.457455
vt 0.633902 1.457455
vt 0.633902 1.214144
vt 0.341929 1.214144
vt 0.339730 1.214081
vt 0.635270 1.214081
vt 0.635270 1.460364
vt 0.339730 1.460364
vt 0.191961 1.214081
vt 0.783040 1.214081
vt 0.783040 0.967798
vt 0.191961 0.967798
vt 0.980066 0.967798
vt -0.005066 0.967798
vt -0.043259 1.000983
vt -0.043259 0.631558
vt 1.057632 0.631558
vt 1.057632 1.000983
vn 0.000000 0.000000 -1.000000
vn 1.000000 0.000000 0.000000
vn 0.000000 0.000000 1.000000
vn -1.000000 0.000000 -0.000000
vn 0.000000 1.000000 0.000000
vn 0.000000 -1.000000 0.000000
g Fireplace_off_Plane_FirePlace
s off
f 36/1/1 24/2/1 7/3/1 15/4/1
f 24/5/2 26/2/2 11/3/2 7/6/2
f 32/7/3 28/5/3 9/6/3 19/8/3
f 28/2/4 21/5/4 5/6/4 9/3/4
f 5/6/1 16/8/1 41/9/1 42/10/1
f 17/11/5 12/12/5 8/13/5 14/14/5
f 10/15/5 18/3/5 13/6/5 6/10/5
f 15/4/1 7/3/1 44/15/1 47/16/1
f 16/6/6 15/14/6 20/11/6 19/3/6
f 26/2/3 30/1/3 20/4/3 11/3/3
f 30/1/3 32/7/3 19/8/3 20/4/3
f 21/5/1 34/7/1 16/8/1 5/6/1
f 34/7/1 36/1/1 15/4/1 16/8/1
f 13/17/1 14/18/1 35/19/1 33/20/1
f 36/14/5 34/6/5 38/4/5 40/19/5
f 6/13/1 13/17/1 33/20/1 22/14/1
f 22/14/1 33/20/1 34/7/1 21/5/1
f 17/18/3 18/17/3 31/20/3 29/19/3
f 29/19/3 31/20/3 32/7/3 30/1/3
f 12/12/3 17/18/3 29/19/3 25/11/3
f 25/11/3 29/19/3 30/1/3 26/2/3
f 10/12/4 6/13/4 22/14/4 27/11/4
f 27/11/4 22/14/4 21/5/4 28/2/4
f 18/17/3 10/13/3 27/14/3 31/20/3
f 31/20/3 27/14/3 28/5/3 32/7/3
f 8/13/2 12/12/2 25/11/2 23/14/2
f 23/14/2 25/11/2 26/2/2 24/5/2
f 14/18/1 8/12/1 23/11/1 35/19/1
f 35/19/1 23/11/1 24/2/1 36/1/1
f 37/20/1 39/19/1 40/1/1 38/7/1
f 35/14/4 36/5/4 40/1/4 39/19/4
f 34/5/2 33/14/2 37/19/2 38/1/2
f 33/6/6 35/14/6 39/19/6 37/4/6
f 47/14/6 44/13/6 43/12/6 45/11/6
f 42/10/6 41/6/6 48/3/6 46/15/6
f 20/3/4 15/6/4 47/10/4 45/15/4
f 7/6/2 11/3/2 43/15/2 44/10/2
f 16/6/2 19/3/2 48/15/2 41/10/2
f 9/3/4 5/6/4 42/10/4 46/15/4
f 11/3/3 20/4/3 45/16/3 43/15/3
f 19/8/3 9/6/3 46/10/3 48/9/3
f 60/21/4 58/22/4 62/23/4 64/24/4
f 17/12/2 14/13/2 50/21/2 52/22/2
f 13/13/4 18/12/4 51/22/4 49/21/4
f 56/25/5 54/26/5 58/27/5 60/28/5
f 49/6/3 51/3/3 54/3/3 56/6/3
f 64/28/5 62/27/5 66/29/5 68/30/5
f 57/22/2 59/21/2 63/24/2 61/23/2
f 53/31/5 55/32/5 59/33/5 57/34/5
f 52/11/3 50/14/3 55/14/3 53/11/3
f 61/34/5 63/33/5 67/35/5 65/36/5
f 68/24/4 66/23/4 70/37/4 72/38/4
f 65/23/2 67/24/2 71/38/2 69/37/2
f 71/35/5 72/30/5 70/29/5 69/36/5
f 72/39/1 71/40/1 67/41/1 68/42/1
f 66/43/3 65/44/3 69/45/3 70/46/3
f 64/47/1 68/43/1 67/44/1 63/48/1 59/49/1 60/50/1
f 58/50/3 57/49/3 61/48/3 65/44/3 66/43/3 62/47/3
f 18/17/3 17/18/3 52/51/3 54/52/3 58/50/3 57/49/3 53/51/3 51/52/3
f 13/17/1 49/52/1 55/51/1 59/49/1 60/50/1 56/52/1 50/51/1 14/18/1
g Fireplace_off_Plane_Grate
f 1/53/1 2/54/1 4/55/1 3/56/1
