# Blender v2.75 (sub 4) OBJ File: 'stone_path.blend'
# www.blender.org
o Path_3_Plane.006
v -0.398223 -0.400000 -0.098539
v 0.004699 -0.400000 -0.098539
v -0.398223 -0.400000 -0.401461
v 0.004699 -0.400000 -0.401461
v -0.198223 -0.400000 0.501461
v 0.104699 -0.400000 0.501461
v -0.198223 -0.400000 0.098539
v 0.104699 -0.400000 0.098539
v 0.101777 -0.400000 -0.098539
v 0.504699 -0.400000 -0.098539
v 0.101777 -0.400000 -0.401461
v 0.504699 -0.400000 -0.401461
v 0.206537 -0.400000 0.396701
v 0.499939 -0.400000 0.396701
v 0.206537 -0.400000 0.003299
v 0.499939 -0.400000 0.003299
v -0.500061 -0.400000 0.396701
v -0.500061 -0.400000 0.003299
v -0.300061 -0.400000 0.396701
v -0.300061 -0.400000 0.003299
v -0.398223 -0.500000 -0.098539
v 0.004699 -0.500000 -0.098539
v -0.398223 -0.500000 -0.401461
v 0.004699 -0.500000 -0.401461
v -0.198223 -0.500000 0.501461
v 0.104699 -0.500000 0.501461
v -0.198223 -0.500000 0.098539
v 0.104699 -0.500000 0.098539
v 0.101777 -0.500000 -0.098539
v 0.504699 -0.500000 -0.098539
v 0.101777 -0.500000 -0.401461
v 0.504699 -0.500000 -0.401461
v 0.206537 -0.500000 0.396701
v 0.499939 -0.500000 0.396701
v 0.206537 -0.500000 0.003299
v 0.499939 -0.500000 0.003299
v -0.500061 -0.500000 0.396701
v -0.500061 -0.500000 0.003299
v -0.300061 -0.500000 0.396701
v -0.300061 -0.500000 0.003299
vt 0.101355 0.664509
vt 0.502369 0.664509
vt 0.502369 1.000000
vt 0.101355 1.000000
vt 0.300408 0.000000
vt 0.601895 0.000000
vt 0.601895 0.446242
vt 0.300408 0.446242
vt 0.598987 0.664509
vt 1.000000 0.664509
vt 1.000000 1.000000
vt 0.598987 1.000000
vt 0.703250 0.116023
vt 0.995263 0.116023
vt 0.995263 0.551722
vt 0.703250 0.551722
vt 0.000000 0.116023
vt 0.199053 0.116023
vt 0.199053 0.551722
vt 0.000000 0.551722
vn 0.000000 1.000000 0.000000
vn 0.000000 0.000000 -1.000000
vn -1.000000 0.000000 0.000000
vn 0.000000 0.000000 1.000000
vn 1.000000 0.000000 0.000000
s off
f 1/1/1 2/2/1 4/3/1 3/4/1
f 5/5/1 6/6/1 8/7/1 7/8/1
f 9/9/1 10/10/1 12/11/1 11/12/1
f 13/13/1 14/14/1 16/15/1 15/16/1
f 17/17/1 19/18/1 20/19/1 18/20/1
f 12/11/2 32/11/2 31/12/2 11/12/2
f 7/8/3 27/8/3 25/5/3 5/5/3
f 17/17/4 37/17/4 39/18/4 19/18/4
f 15/16/3 35/16/3 33/13/3 13/13/3
f 5/5/4 25/5/4 26/6/4 6/6/4
f 13/13/4 33/13/4 34/14/4 14/14/4
f 6/6/5 26/6/5 28/7/5 8/7/5
f 14/14/5 34/14/5 36/15/5 16/15/5
f 8/7/2 28/7/2 27/8/2 7/8/2
f 3/4/3 23/4/3 21/1/3 1/1/3
f 16/15/2 36/15/2 35/16/2 15/16/2
f 11/12/3 31/12/3 29/9/3 9/9/3
f 1/1/4 21/1/4 22/2/4 2/2/4
f 18/20/3 38/20/3 37/17/3 17/17/3
f 9/9/4 29/9/4 30/10/4 10/10/4
f 2/2/5 22/2/5 24/3/5 4/3/5
f 19/18/5 39/18/5 40/19/5 20/19/5
f 10/10/5 30/10/5 32/11/5 12/11/5
f 4/3/2 24/3/2 23/4/2 3/4/2
f 20/19/2 40/19/2 38/20/2 18/20/2
