# Blender v2.75 (sub 4) OBJ File: 'sofa.blend'
# www.blender.org
o Sofa_C_Cube.006
v 0.500000 -0.500000 -0.500000
v 0.500000 -0.500000 0.500000
v 0.500000 0.500000 0.500000
v -0.500000 -0.500000 -0.500000
v -0.500000 -0.500000 0.500000
v -0.500000 0.500000 0.500000
v 0.500000 0.500000 0.200000
v 0.500000 -0.500000 0.200000
v -0.500000 0.500000 0.200000
v -0.500000 -0.500000 0.200000
v 0.500000 0.000000 -0.500000
v 0.500000 0.000000 0.500000
v -0.500000 0.000000 0.500000
v -0.500000 0.000000 -0.500000
v -0.500000 0.000000 0.200000
v 0.500000 0.000000 0.200000
v -0.199400 0.500000 0.500000
v -0.199400 -0.500000 0.500000
v -0.199400 -0.500000 -0.500000
v -0.199400 0.500000 0.200000
v -0.199400 -0.500000 0.200000
v -0.199400 0.000000 0.200000
v -0.199400 0.000000 -0.500000
v -0.199400 0.000000 0.500000
v -0.199400 0.500000 -0.500000
v -0.500000 0.500000 -0.500000
vt 0.700000 0.500000
vt 1.000000 0.500000
vt 1.000000 -0.000000
vt 0.700000 -0.000000
vt 0.700574 0.496063
vt 1.000000 0.496063
vt 0.700574 0.000000
vt 0.000000 0.500000
vt 0.000000 0.000000
vt 0.696668 0.500000
vt 0.696668 -0.000000
vt 0.696625 0.688976
vt 0.696625 0.984251
vt 0.996032 0.984251
vt 0.996032 0.688976
vt 0.700593 0.694488
vt 0.700593 0.992126
vt 0.003968 0.992126
vt 0.003968 0.694488
vt 0.003968 0.000000
vt 0.696625 0.000000
vt 0.996032 0.000000
vt 1.000000 1.000000
vt 0.700000 1.000000
vt 1.000000 0.992126
vt 0.003906 0.992126
vt 0.003906 0.496063
vt -0.000000 1.000000
vt 0.696668 1.000000
vt 0.000000 0.688976
vt 1.000000 0.694488
vt 0.000000 0.984251
vt 0.996094 0.500000
vt 0.996094 -0.000000
vt 0.003906 0.000000
vt 0.996094 1.000000
vn 1.000000 0.000000 0.000000
vn 0.000000 0.000000 1.000000
vn -1.000000 0.000000 0.000000
vn 0.000000 0.000000 -1.000000
vn 0.000000 -1.000000 0.000000
vn 0.000000 1.000000 0.000000
s off
f 16/1/1 12/2/1 2/3/1 8/4/1
f 24/5/2 13/6/2 5/3/2 18/7/2
f 15/1/3 14/8/3 4/9/3 10/4/3
f 23/10/4 11/8/4 1/9/4 19/11/4
f 21/12/5 18/13/5 5/14/5 10/15/5
f 20/16/6 17/17/6 3/18/6 7/19/6
f 22/16/6 16/19/6 11/20/6 23/7/6
f 19/21/5 21/12/5 10/15/5 4/22/5
f 13/2/3 15/1/3 10/4/3 5/3/3
f 11/8/1 16/1/1 8/4/1 1/9/1
f 6/23/3 9/24/3 15/1/3 13/2/3
f 17/17/2 6/25/2 13/6/2 24/5/2
f 7/24/1 3/23/1 12/2/1 16/1/1
f 3/26/2 17/17/2 24/5/2 12/27/2
f 7/28/4 16/8/4 22/10/4 20/29/4
f 1/9/5 8/30/5 21/12/5 19/21/5
f 9/31/6 6/25/6 17/17/6 20/16/6
f 8/30/5 2/32/5 18/13/5 21/12/5
f 14/33/4 23/10/4 19/11/4 4/34/4
f 12/27/2 24/5/2 18/7/2 2/35/2
f 23/10/4 14/33/4 26/36/4 25/29/4
f 9/31/6 20/16/6 25/7/6 26/3/6
f 22/1/1 23/8/1 25/28/1 20/24/1
f 14/8/3 15/1/3 9/24/3 26/28/3
